<?xml version="1.0" encoding="UTF-8" standalone="no"?>
<svg
   version="1.1"
   viewBox="0 0 1024 1024"
   width="512"
   height="512"
   id="svg2"
   sodipodi:docname="drift-colorless.svg"
   inkscape:export-filename="drift-colorless2.svg"
   inkscape:export-xdpi="96"
   inkscape:export-ydpi="96"
   inkscape:version="1.4 (e7c3feb100, 2024-10-09)"
   xmlns:inkscape="http://www.inkscape.org/namespaces/inkscape"
   xmlns:sodipodi="http://sodipodi.sourceforge.net/DTD/sodipodi-0.dtd"
   xmlns="http://www.w3.org/2000/svg"
   xmlns:svg="http://www.w3.org/2000/svg">
  <defs
     id="defs2" />
  <sodipodi:namedview
     id="namedview2"
     pagecolor="#ffffff"
     bordercolor="#000000"
     borderopacity="0.25"
     inkscape:showpageshadow="2"
     inkscape:pageopacity="0.0"
     inkscape:pagecheckerboard="0"
     inkscape:deskcolor="#d1d1d1"
     inkscape:zoom="1.1259766"
     inkscape:cx="194.49783"
     inkscape:cy="329.93582"
     inkscape:window-width="3440"
     inkscape:window-height="1403"
     inkscape:window-x="0"
     inkscape:window-y="0"
     inkscape:window-maximized="1"
     inkscape:current-layer="svg2" />
  <path
     d="m 509.873,0 12.1543,0.60771513 11.54659,2.43086057 11.54659,4.861721 6.07715,3.6462913 10.93887,7.900296 10.93888,8.508012 20.66231,14.585163 15.19287,9.723442 17.01603,10.331158 16.40831,9.115727 23.09318,11.546587 19.44687,8.508012 18.83917,7.292582 21.87774,7.292583 18.23146,5.46943 19.44688,4.86173 20.0546,4.254 26.13175,4.25401 20.66232,2.43086 40.1092,3.64629 10.93887,2.43086 11.54659,4.86172 8.50801,5.46944 6.68486,5.46943 6.07716,6.07715 6.07715,8.50802 5.46943,10.33115 3.03858,9.11573 1.82314,9.72344 0.60772,9.72344 v 379.82196 l -1.21543,26.13175 -3.03858,23.70089 -3.03857,15.8006 -4.86172,19.44688 -7.9003,24.30861 -7.9003,19.44688 -7.90029,17.01603 -7.9003,15.19287 -8.50801,14.58517 -8.50801,13.36973 -6.68487,9.72344 -7.9003,10.93887 -8.50801,10.93888 -5.46944,6.68486 -6.68486,7.9003 -7.29258,8.50801 -9.72345,10.33116 -6.68486,7.29258 -11.54659,11.54659 h -1.21543 v 1.21543 l -4.86172,4.254 -10.33116,9.72345 -6.07715,5.46943 -6.68487,5.46944 -8.50801,7.29258 -17.01602,13.36973 -9.72344,7.29258 -10.93888,7.9003 -12.1543,8.50801 -14.58516,9.72345 -13.36974,8.50801 -12.76201,7.90029 -17.62374,10.33116 -17.62374,9.72344 -15.19288,7.9003 -10.33116,5.46944 -13.97744,6.68486 -17.01603,7.90029 -20.0546,8.508 -21.87774,8.508 -13.36974,4.8618 -7.29258,1.8231 h -10.33115 l -9.11573,-2.4309 -14.58516,-5.4694 -24.30861,-9.7234 -15.19288,-6.68491 -14.58516,-6.68486 -21.27003,-10.33116 -20.0546,-10.33116 -27.9549,-15.80059 -17.01602,-10.33116 -13.36973,-8.50801 -9.11573,-6.07715 -11.54659,-7.9003 -12.1543,-8.50801 -19.44688,-14.58516 -9.72345,-7.9003 -6.07715,-4.86172 -6.68486,-5.46944 -9.11573,-7.90029 -7.9003,-7.29258 -4.86172,-4.25401 -9.11573,-8.50801 -18.23145,-18.23146 -4.25401,-4.86172 -7.90028,-8.50801 -5.46944,-6.68487 -7.29259,-8.50801 -6.68486,-8.50801 -6.07715,-7.9003 -7.9003,-10.93887 -6.07715,-9.11573 -7.29258,-11.54658 -7.29258,-12.15431 -8.50802,-15.80059 -8.50801,-17.62374 -7.90029,-19.44688 -7.29259,-21.87775 -4.86172,-17.62374 -4.254004,-20.66231 -2.43086,-16.40831 -1.823146,-20.66231 -0.607715,-12.76202 V 204.8 l 0.607715,-10.33116 2.430861,-12.1543 3.646291,-9.72344 5.469438,-10.33116 5.46943,-6.68487 6.68487,-7.29258 9.11573,-6.68486 11.54659,-6.07716 9.72344,-3.03857 6.07715,-1.21543 41.32463,-3.64629 24.30861,-3.03858 24.91632,-4.254 24.3086,-5.46944 20.66232,-5.46944 29.77804,-9.723438 21.87774,-8.508012 17.62374,-7.900297 15.19288,-7.292581 15.19288,-7.900297 14.58516,-8.508012 12.15431,-7.292582 20.0546,-13.369732 11.54658,-7.900297 10.93888,-8.508012 7.29258,-5.469436 10.33115,-7.2925819 11.54659,-5.4694362 10.93887,-3.0385756 z m 1.21543,72.318101 -15.80059,12.154303 -10.93887,7.900296 -13.97745,9.72344 -10.33116,6.68487 -11.54659,7.29258 -16.40831,9.72344 -17.62373,9.72344 -11.54659,6.07716 -13.97745,6.68486 -20.66231,9.11573 -21.87775,8.50801 -26.73947,9.11573 -21.27002,6.07715 -24.91633,6.07715 -24.3086,4.86172 -27.34718,4.25401 -27.34718,3.03857 -28.56262,2.43086 -1.21543,1.82315 v 379.82196 l 1.21543,21.27003 2.43086,18.23145 3.64629,17.62374 5.46944,18.83917 4.86172,13.36973 6.68487,15.8006 6.68487,13.97744 7.90029,13.97745 8.50802,13.97745 8.50801,12.1543 8.50801,11.54659 10.93887,13.36973 7.29258,8.50802 8.50802,9.11572 6.68486,7.29258 12.76202,12.76202 4.86172,4.25401 4.25401,4.254 4.86172,4.25401 9.11573,7.9003 7.90029,6.68486 6.07715,4.86172 8.50802,6.68487 12.76201,9.72344 8.50801,6.07715 13.36974,9.11573 12.76202,8.50801 10.33115,6.68487 27.34718,16.40831 8.50802,4.254 10.93887,6.07716 16.40831,8.50801 19.44688,9.72344 21.87775,9.72344 19.44688,7.9003 9.11573,3.64629 5.46943,-1.82315 17.01603,-6.68486 26.13175,-11.54659 21.27003,-10.33116 12.1543,-6.07715 26.73947,-14.58516 16.4083,-9.72344 12.76202,-7.9003 13.36974,-8.50801 12.1543,-8.50801 11.54659,-7.9003 7.90029,-6.07715 10.33116,-7.9003 8.50801,-6.68487 10.33116,-8.50801 6.07715,-5.46943 6.68487,-5.46944 4.254,-4.25401 4.86172,-4.254 9.11573,-9.11573 1.82315,-1.21543 v -1.21543 l 2.43086,-1.21543 v -1.21543 l 1.82314,-0.60772 4.25401,-4.86172 7.90029,-7.90029 5.46944,-6.68487 6.68487,-7.29258 4.86172,-6.07715 6.68486,-8.50801 8.50802,-11.54659 9.72344,-14.58517 10.93887,-18.23145 4.86172,-9.72344 7.29258,-15.19288 7.9003,-20.66231 5.46944,-18.23146 3.64629,-15.80059 2.43086,-13.97745 1.82314,-21.27003 V 202.36914 l -0.60771,-0.60772 -36.46291,-3.03857 -24.30861,-3.03858 -15.19287,-2.43086 -20.66232,-3.64629 -24.3086,-5.46943 -22.48546,-6.07716 -20.0546,-6.07715 -23.70089,-8.50801 -19.44689,-7.9003 -25.52403,-11.54658 -15.8006,-7.9003 -10.93887,-6.07715 -13.97745,-7.9003 -13.97744,-8.50801 -20.0546,-13.36973 -9.72345,-6.684869 -10.93887,-7.900297 -7.9003,-6.077152 -9.72344,-7.292581 z"
     fill="#2e3436"
     id="path1"
     style="stroke-width:0.607715" />
  <path
     d="m 670.00593,204.19228 h 23.09318 l 10.93887,1.82315 11.54659,3.03858 14.58516,6.07715 8.50802,4.86172 8.50801,6.07715 8.50801,7.29258 5.46944,5.46944 5.46943,6.68486 7.29258,10.93888 4.86172,9.11572 4.86172,12.76202 3.03858,11.54659 1.21543,7.9003 0.60772,7.29258 v 9.11572 l -1.21543,13.36974 -3.03858,13.36973 -4.86172,13.36973 -6.07715,11.54659 -5.46944,7.9003 -4.86172,6.07715 -5.46944,6.07715 -4.86172,4.86172 -10.33115,7.9003 -9.11573,5.46943 -12.76202,6.07716 -11.54659,3.64629 -12.1543,2.43086 -4.25401,0.60771 h -21.27002 l -11.54659,-1.82314 -9.72344,-2.43086 -15.19288,-6.07716 -9.72344,-5.46943 -8.50802,-6.07715 -3.64629,-2.43086 -3.03857,0.60771 -14.58517,8.50801 -13.97744,7.9003 -14.58517,8.50801 -34.03205,19.44689 -14.58516,8.50801 -15.19288,8.50801 -29.17032,17.01602 -0.60772,1.21543 1.21543,4.86172 1.21543,9.11573 0.60772,13.36973 -1.21543,13.36974 -1.21543,10.33116 10.33115,6.07715 15.8006,9.11572 46.79406,26.73947 31.60119,18.23145 29.77804,17.01603 3.64629,2.43086 2.43086,-1.21543 7.29258,-5.46944 7.9003,-4.86172 9.72344,-4.86172 9.11573,-3.64629 11.54659,-3.03858 11.54659,-1.82314 h 20.66231 l 11.54659,1.82314 11.54658,3.03858 9.72345,3.64629 12.76201,6.68487 7.9003,5.46943 6.68487,5.46944 7.29258,6.68486 5.46944,6.68487 4.86172,6.07715 5.46943,9.11573 4.86172,9.72344 4.25401,11.54659 3.03858,13.97745 1.21543,10.93887 v 9.72344 l -1.21543,13.36973 -3.03858,12.76202 -4.25401,12.1543 -7.29258,13.97745 -6.07715,8.50801 -6.68487,7.9003 -9.11572,9.11573 -10.93887,7.9003 -10.93888,6.07715 -9.72344,4.254 -12.1543,3.64629 -8.50801,1.82315 -12.76202,1.21543 h -9.72344 l -14.58517,-1.82315 -12.1543,-3.03857 -9.72344,-3.64629 -13.97745,-7.29258 -7.9003,-5.46944 -6.68486,-5.46944 -10.93888,-10.93887 -6.07715,-7.9003 -4.86172,-7.90029 -5.46943,-10.33116 -4.25401,-11.54659 -3.03858,-12.76202 -1.21543,-8.50801 V 674.5638 l 1.21543,-7.9003 -5.46943,-3.64629 -17.01603,-9.72344 -15.80059,-9.11573 -17.01602,-9.72344 -15.8006,-9.11573 -29.77804,-17.01602 -15.80059,-9.11573 -17.01602,-9.72344 -6.07716,-3.64629 v 1.21543 l -6.68486,5.46944 -10.33116,7.29258 -12.1543,6.68486 -12.15431,4.86172 -12.76201,3.6463 -13.36974,2.43086 -6.68486,0.60771 H 347.3092 l -13.97745,-1.82314 -14.58516,-3.6463 -15.19288,-6.07715 -9.11573,-4.86172 -9.11572,-6.07715 -8.50802,-6.68487 -7.90029,-7.29258 -4.25401,-4.86172 -6.07715,-7.29258 -6.07715,-9.11573 -7.29258,-13.97744 -4.25401,-10.93888 -3.03857,-11.54658 -2.43087,-14.58517 v -23.09317 l 2.43087,-14.58517 3.03857,-10.93887 3.64629,-9.72344 5.46944,-11.54659 6.68486,-10.33116 6.07716,-7.90029 5.46943,-6.07715 2.43086,-3.03858 h 1.21543 v -1.21543 l 4.86172,-4.25401 10.93888,-8.50801 11.54658,-6.68486 9.72345,-4.86173 16.4083,-5.46943 12.76202,-2.43086 4.25401,-0.60772 15.19288,-0.60771 10.93887,0.60771 11.54659,1.82315 11.54658,3.03857 11.54659,4.25401 9.72344,4.86172 8.50802,4.86172 10.33115,7.9003 4.86172,4.254 3.03858,-1.21543 16.40831,-9.11572 14.58516,-8.50801 29.77804,-17.01603 15.8006,-9.11573 12.76201,-7.29258 31.60119,-18.23145 15.19288,-8.50801 -0.60772,-8.50801 v -21.87775 l 2.43086,-13.36973 3.03858,-10.93887 5.46944,-12.76202 4.86172,-8.50801 5.46943,-7.9003 7.29259,-8.50801 8.50801,-8.50801 9.72344,-7.29259 9.11573,-5.46943 11.54658,-5.46944 10.93888,-3.64629 12.1543,-2.43086 z m 8.50802,71.10268 -8.50802,1.82314 -8.50801,4.25401 -7.29258,6.68486 -4.86172,8.50802 -2.43086,7.90029 -0.60772,6.68487 1.21544,8.50801 3.03857,7.29258 3.64629,6.07715 4.25401,4.25401 8.50801,5.46944 7.29258,2.43086 3.64629,0.60771 h 8.50801 l 8.50802,-2.43086 6.68486,-3.64629 4.86172,-3.64629 4.86172,-6.07715 3.64629,-7.29258 1.82315,-6.68487 v -11.54659 l -3.03858,-9.11573 -4.254,-6.68486 -3.64629,-4.25401 -7.9003,-5.46943 -8.50801,-3.03858 -3.64629,-0.60771 z m -329.38161,173.80652 -10.33115,2.43086 -9.72344,4.86173 -6.07716,4.86172 -6.07715,6.07715 -4.86172,7.90029 -3.03857,6.68487 -2.43086,12.1543 v 7.9003 l 1.82314,9.11573 3.03858,8.50801 5.46943,8.50801 4.86172,5.46944 7.29259,5.46943 9.72344,4.86172 9.72344,2.43087 h 13.97745 l 9.72344,-2.43087 9.72344,-4.86172 5.46944,-4.254 3.03857,-2.43086 6.68487,-8.50801 4.25401,-8.50802 2.43086,-9.72344 0.60771,-4.86172 v -6.07715 l -1.21543,-8.50801 -3.03857,-8.50802 -3.6463,-6.68486 -4.254,-5.46944 -3.03858,-3.03857 -5.46943,-4.86172 -8.50801,-4.86173 -9.72345,-3.03857 -4.254,-0.60772 z m 332.42018,200.546 -9.11572,1.21543 -7.29259,3.03857 -5.46943,3.64629 -4.25401,3.6463 -4.254,6.07715 -3.03858,6.68486 -1.21543,4.86172 -0.60772,6.68487 1.21544,8.50801 3.03857,7.9003 4.86172,6.68487 4.25401,4.254 6.07715,3.64629 5.46944,2.43086 5.46943,1.21543 h 10.93887 l 9.11573,-3.03857 6.68487,-4.25401 4.86172,-4.254 4.254,-6.07716 3.03858,-7.29258 1.21543,-4.86172 v -10.93887 l -2.43086,-7.9003 -3.64629,-6.68486 -5.46944,-6.07716 -5.46943,-4.254 -6.68487,-3.03858 -4.25401,-1.21543 z"
     fill="#2e3436"
     id="path2"
     style="stroke-width:0.607715" />
</svg>
